<svg width="68" height="68" viewBox="0 0 68 68" fill="none" xmlns="http://www.w3.org/2000/svg">
<path fill-rule="evenodd" clip-rule="evenodd" d="M58.7917 7.08154C60.6697 7.08154 62.4706 7.82796 63.7987 9.15605C65.1268 10.4841 65.8732 12.2851 65.8732 14.1631V14.1684C65.8732 16.0464 65.1268 17.8473 63.7987 19.1754C62.4706 20.5035 60.6696 21.2499 58.7917 21.2499H9.20213C7.32414 21.2499 5.52321 20.5035 4.19512 19.1754C2.86702 17.8473 2.12061 16.0463 2.12061 14.1684V14.1631C2.12061 12.2877 2.86702 10.4841 4.19512 9.15605C5.52321 7.82796 7.32419 7.08154 9.20213 7.08154H58.7917ZM58.7917 11.3315H9.20213C8.45305 11.3315 7.73055 11.6317 7.1993 12.1603C6.66805 12.6915 6.37055 13.4114 6.37055 14.1631V14.1684C6.37055 14.9175 6.66805 15.64 7.1993 16.1713C7.73055 16.7025 8.45039 17 9.20213 17H58.7917C59.5408 17 60.2633 16.7025 60.7945 16.1713C61.3258 15.64 61.6233 14.9202 61.6233 14.1684V14.1631C61.6233 13.414 61.3258 12.6915 60.7945 12.1603C60.2633 11.6317 59.5434 11.3315 58.7917 11.3315Z" fill="#EDE5CC"/>
<path fill-rule="evenodd" clip-rule="evenodd" d="M58.7917 26.9185C60.6697 26.9185 62.4706 27.6649 63.7987 28.993C65.1269 30.3185 65.8732 32.122 65.8732 34V34.0053C65.8732 35.8833 65.1268 37.6869 63.7987 39.0123C62.4706 40.3405 60.6696 41.0868 58.7917 41.0868H9.20213C7.32414 41.0868 5.52321 40.3404 4.19512 39.0123C2.86696 37.6868 2.12061 35.8832 2.12061 34.0053V34C2.12061 32.122 2.86702 30.3184 4.19512 28.993C5.52327 27.6648 7.32419 26.9185 9.20213 26.9185H58.7917ZM58.7917 31.1685H9.20213C8.45305 31.1685 7.73055 31.466 7.1993 31.9972C6.66805 32.5285 6.37055 33.2456 6.37055 34V34.0053C6.37055 34.7571 6.66805 35.4769 7.1993 36.0082C7.73055 36.5394 8.45039 36.8369 9.20213 36.8369H58.7917C59.5408 36.8369 60.2633 36.5394 60.7945 36.0082C61.3258 35.4769 61.6233 34.7598 61.6233 34.0053V34C61.6233 33.2483 61.3258 32.5285 60.7945 31.9972C60.2633 31.466 59.5434 31.1685 58.7917 31.1685Z" fill="#EDE5CC"/>
<path fill-rule="evenodd" clip-rule="evenodd" d="M58.7917 46.75C60.6697 46.75 62.4706 47.4964 63.7987 48.8245C65.1268 50.1526 65.8732 51.9536 65.8732 53.8315V53.8368C65.8732 55.7122 65.1268 57.5157 63.7987 58.8438C62.4706 60.1719 60.6696 60.9184 58.7917 60.9184H9.20213C7.32414 60.9184 5.52321 60.1719 4.19512 58.8438C2.86702 57.5157 2.12061 55.7148 2.12061 53.8368V53.8315C2.12061 51.9535 2.86702 50.1526 4.19512 48.8245C5.52321 47.4964 7.32419 46.75 9.20213 46.75H58.7917ZM58.7917 51H9.20213C8.45305 51 7.73055 51.2975 7.1993 51.8287C6.66805 52.36 6.37055 53.0798 6.37055 53.8316V53.8369C6.37055 54.586 6.66805 55.3085 7.1993 55.8397C7.73055 56.3683 8.45039 56.6685 9.20213 56.6685H58.7917C59.5408 56.6685 60.2633 56.3683 60.7945 55.8397C61.3258 55.3085 61.6233 54.5886 61.6233 53.8369V53.8316C61.6233 53.0825 61.3258 52.36 60.7945 51.8287C60.2633 51.2975 59.5434 51 58.7917 51Z" fill="#EDE5CC"/>
</svg>
